<svg width="50" height="51" viewBox="0 0 50 51" fill="none" xmlns="http://www.w3.org/2000/svg">
<g clip-path="url(#clip0_845_2472)">
<path d="M37 0.712158C30.885 0.712158 25.756 4.45488 24.377 9.47388C22.49 8.55988 20.2015 8.77231 18.5645 10.1223L13.6719 13.7122H10C9.447 13.7122 9 14.1602 9 14.7122V18.011C8.986 18.022 8.96712 18.0234 8.95312 18.0344L2.36328 23.4602C2.13328 23.6502 2 23.9346 2 24.2336V47.7004C2 48.2524 2.447 48.7004 3 48.7004H40.9961C41.5491 48.7004 41.9961 48.2524 41.9961 47.7004V24.2336C41.9961 23.9216 41.8496 23.6277 41.6016 23.4387L41.0703 23.0325C46.2493 21.5235 50 17.2253 50 12.1633C50 5.84933 44.168 0.712158 37 0.712158ZM37 2.71216C43.065 2.71216 48 6.95233 48 12.1633C48 17.3753 43.065 21.6145 37 21.6145C36.072 21.6145 35.1711 21.5083 34.2441 21.2903C33.8801 21.2033 33.4989 21.3305 33.2559 21.6145C32.8899 22.0425 31.6495 23.311 29.6055 23.636C30.0945 22.769 30.3571 22.0184 30.4961 21.4954C30.6431 20.9534 30.6698 20.671 30.6758 20.425C30.6888 20.081 30.5213 19.7548 30.2363 19.5618C27.5433 17.7398 26 15.0423 26 12.1633C26 6.95233 30.935 2.71216 37 2.71216ZM37 5.81177C36.4 5.81177 36 6.21177 36 6.81177V10.7122H32.0996C31.4996 10.7122 31.0996 11.1122 31.0996 11.7122C31.0996 12.3122 31.4996 12.7122 32.0996 12.7122H36V16.6125C36 17.2125 36.4 17.6125 37 17.6125C37.6 17.6125 38 17.2125 38 16.6125V12.7122H41.9004C42.5004 12.7122 42.9004 12.3122 42.9004 11.7122C42.9004 11.1122 42.5004 10.7122 41.9004 10.7122H38V6.81177C38 6.21177 37.6 5.81177 37 5.81177ZM21.8945 10.9172C22.6433 10.8985 23.3982 11.1213 24.0332 11.5833C24.0222 11.7763 24 11.9673 24 12.1633C24 12.6873 24.0548 13.2022 24.1348 13.7122H17.0527L19.793 11.7004C20.404 11.1964 21.1458 10.936 21.8945 10.9172ZM24.6328 15.6575C25.3668 17.6485 26.7177 19.4448 28.5957 20.8508C28.5857 20.8898 28.5745 20.9308 28.5625 20.9758C28.4175 21.5198 28.1012 22.3783 27.4082 23.3743L26.873 24.1399C26.66 24.4459 26.6366 24.845 26.8086 25.175C26.9806 25.505 27.3204 25.7122 27.6934 25.7122H28.627C30.488 25.7122 31.9481 25.0999 32.9961 24.4309V30.3254L28.6133 33.7454L26.834 32.3606C24.031 30.1786 19.9651 30.1786 17.1621 32.3606L15.3848 33.7434L11 30.3235V15.7122H24.3633C24.4583 15.7122 24.5458 15.6825 24.6328 15.6575ZM9 20.5872V28.7629L4 24.8625V24.7043L9 20.5872ZM34.9961 23.4524C35.6641 23.5504 36.334 23.6145 37 23.6145C37.486 23.6145 37.9655 23.5863 38.4375 23.5403L39.9961 24.7278V24.8625L34.9961 28.7649V23.4524ZM4 27.3997L13.7559 35.011L4 42.6047V27.3997ZM39.9961 27.3997V42.6047L30.2402 35.0129L39.9961 27.3997ZM21.998 32.7161C23.2793 32.7161 24.5605 33.1233 25.6055 33.9368L39.9961 45.1399V46.7004H4V45.1399L18.3906 33.9368C19.4356 33.1233 20.7168 32.7161 21.998 32.7161Z" fill="#DD8560"/>
</g>
<defs>
<clipPath id="clip0_845_2472">
<rect width="50" height="50" fill="white" transform="translate(0 0.712158)"/>
</clipPath>
</defs>
</svg>
