<svg width="74" height="63" viewBox="0 0 74 63" fill="none" xmlns="http://www.w3.org/2000/svg">
<path d="M36.5 16.3079C23.817 16.3079 13.5 26.6249 13.5 39.3079C13.5 51.9909 23.817 62.3079 36.5 62.3079C49.183 62.3079 59.5 51.9909 59.5 39.3079C59.5 34.7479 58.1603 30.4972 55.8633 26.9192L54.4941 28.5364C56.3891 31.6904 57.5 35.3679 57.5 39.3079C57.5 50.8869 48.079 60.3079 36.5 60.3079C24.921 60.3079 15.5 50.8869 15.5 39.3079C15.5 27.7289 24.921 18.3079 36.5 18.3079C41.943 18.3079 46.8939 20.4076 50.6289 23.8176L51.9375 22.2727C47.8525 18.5677 42.435 16.3079 36.5 16.3079ZM54.7363 22.0618L35.4141 44.8625L27.2812 37.2766L25.918 38.7395L35.584 47.7551L56.2637 23.3547L54.7363 22.0618Z" fill="#A8715A"/>
<path d="M59.957 8.60995C58.909 9.16094 56.3198 9.40583 56.3198 9.40583V10.3854C56.3198 10.3854 58.909 10.6303 59.957 11.1812C60.9434 11.7322 61.8064 12.4669 62.4229 13.4464C63.101 14.426 63.5325 15.528 63.8408 16.8136C64.149 18.0992 64.2723 19.2074 64.2723 19.2074H65.1354C65.1354 19.2074 65.4396 17.4498 65.5669 16.8136C65.8751 15.528 66.3683 14.426 66.9848 13.4464C67.6012 12.4669 68.4026 11.7322 69.4506 11.1812C70.4986 10.6303 73.0878 10.3854 73.0878 10.3854V9.40583C73.0878 9.40583 70.4986 9.16094 69.4506 8.60995C68.4643 8.05896 67.6012 7.3243 66.9848 6.34476C66.3066 5.36523 65.8751 4.26325 65.5669 2.9776C65.4255 2.21979 65.1354 0.289062 65.1354 0.289062H64.2723C64.2723 0.289062 63.9857 2.48797 63.8408 2.9776C63.5325 4.26325 63.0393 5.36523 62.4229 6.34476C61.8064 7.3243 61.005 8.05896 59.957 8.60995Z" fill="#E0CFBA"/>
<path d="M2.98647 22.5816C2.36472 22.9085 0.828613 23.0538 0.828613 23.0538V23.6349C0.828613 23.6349 2.36472 23.7802 2.98647 24.1071C3.57166 24.434 4.08369 24.8699 4.44943 25.451C4.85174 26.0322 5.10776 26.6859 5.29063 27.4487C5.4735 28.2114 5.54664 28.8688 5.54664 28.8688H6.05868C6.05868 28.8688 6.23917 27.8261 6.3147 27.4487C6.49757 26.6859 6.79015 26.0322 7.15589 25.451C7.52163 24.8699 7.9971 24.434 8.61885 24.1071C9.24061 23.7802 10.7767 23.6349 10.7767 23.6349V23.0538C10.7767 23.0538 9.24061 22.9085 8.61885 22.5816C8.03367 22.2547 7.52163 21.8189 7.15589 21.2377C6.75358 20.6566 6.49757 20.0028 6.3147 19.2401C6.2308 18.7905 6.05868 17.645 6.05868 17.645H5.54664C5.54664 17.645 5.37664 18.9496 5.29063 19.2401C5.10776 20.0028 4.81517 20.6566 4.44943 21.2377C4.08369 21.8189 3.60823 22.2547 2.98647 22.5816Z" fill="#E0CFBA"/>
</svg>
