<svg width="22" height="15" viewBox="0 0 22 15" fill="none" xmlns="http://www.w3.org/2000/svg">
<path d="M1.7 0.559937C1.0408 0.559937 0.5 1.10074 0.5 1.75994V5.95994H0.8C1.79767 5.95994 2.6 6.76227 2.6 7.75994C2.6 8.75761 1.79767 9.55994 0.8 9.55994H0.5V13.7599C0.5 14.4191 1.0408 14.9599 1.7 14.9599H20.3C20.9592 14.9599 21.5 14.4191 21.5 13.7599V9.55994H21.2C20.2023 9.55994 19.4 8.75761 19.4 7.75994C19.4 6.76227 20.2023 5.95994 21.2 5.95994H21.5V1.75994C21.5 1.10074 20.9592 0.559937 20.3 0.559937H1.7ZM1.7 1.15994H6.2C6.2 1.2395 6.23161 1.31581 6.28787 1.37207C6.34413 1.42833 6.42044 1.45994 6.5 1.45994C6.57957 1.45994 6.65587 1.42833 6.71213 1.37207C6.76839 1.31581 6.8 1.2395 6.8 1.15994H20.3C20.635 1.15994 20.9 1.42494 20.9 1.75994V5.42087C19.7254 5.57534 18.8 6.5443 18.8 7.75994C18.8 8.97558 19.7254 9.94453 20.9 10.099V13.7599C20.9 14.0949 20.635 14.3599 20.3 14.3599H6.8C6.8 14.2804 6.76839 14.2041 6.71213 14.1478C6.65587 14.0915 6.57957 14.0599 6.5 14.0599C6.42044 14.0599 6.34413 14.0915 6.28787 14.1478C6.23161 14.2041 6.2 14.2804 6.2 14.3599H1.7C1.365 14.3599 1.1 14.0949 1.1 13.7599V10.099C2.27462 9.94453 3.2 8.97558 3.2 7.75994C3.2 6.5443 2.27462 5.57534 1.1 5.42087V1.75994C1.1 1.42494 1.365 1.15994 1.7 1.15994ZM6.5 2.05994C6.42044 2.05994 6.34413 2.09154 6.28787 2.1478C6.23161 2.20407 6.2 2.28037 6.2 2.35994C6.2 2.4395 6.23161 2.51581 6.28787 2.57207C6.34413 2.62833 6.42044 2.65994 6.5 2.65994C6.57957 2.65994 6.65587 2.62833 6.71213 2.57207C6.76839 2.51581 6.8 2.4395 6.8 2.35994C6.8 2.28037 6.76839 2.20407 6.71213 2.1478C6.65587 2.09154 6.57957 2.05994 6.5 2.05994ZM6.5 3.25994C6.42044 3.25994 6.34413 3.29154 6.28787 3.3478C6.23161 3.40407 6.2 3.48037 6.2 3.55994C6.2 3.6395 6.23161 3.71581 6.28787 3.77207C6.34413 3.82833 6.42044 3.85994 6.5 3.85994C6.57957 3.85994 6.65587 3.82833 6.71213 3.77207C6.76839 3.71581 6.8 3.6395 6.8 3.55994C6.8 3.48037 6.76839 3.40407 6.71213 3.3478C6.65587 3.29154 6.57957 3.25994 6.5 3.25994ZM10.7293 4.0533C9.8356 4.0533 9.2 4.76854 9.2 5.77654C9.2 6.78964 9.8356 7.50447 10.7293 7.50447C11.623 7.50447 12.2539 6.78934 12.2539 5.77654C12.2539 4.76344 11.623 4.0533 10.7293 4.0533ZM14.985 4.17751L12.4725 7.60818L9.73613 11.3424H10.6496L13.1076 7.98084L15.8885 4.17751H14.985ZM6.5 4.45994C6.42044 4.45994 6.34413 4.49154 6.28787 4.5478C6.23161 4.60407 6.2 4.68037 6.2 4.75994C6.2 4.8395 6.23161 4.91581 6.28787 4.97207C6.34413 5.02833 6.42044 5.05994 6.5 5.05994C6.57957 5.05994 6.65587 5.02833 6.71213 4.97207C6.76839 4.91581 6.8 4.8395 6.8 4.75994C6.8 4.68037 6.76839 4.60407 6.71213 4.5478C6.65587 4.49154 6.57957 4.45994 6.5 4.45994ZM10.7293 4.68904C11.1763 4.68904 11.4594 5.10604 11.4594 5.77654C11.4594 6.43204 11.1661 6.86873 10.7293 6.86873C10.2874 6.86873 9.99453 6.43684 9.99453 5.77654C9.99453 5.11624 10.2823 4.68904 10.7293 4.68904ZM6.5 5.65994C6.42044 5.65994 6.34413 5.69154 6.28787 5.7478C6.23161 5.80407 6.2 5.88037 6.2 5.95994C6.2 6.0395 6.23161 6.11581 6.28787 6.17207C6.34413 6.22833 6.42044 6.25994 6.5 6.25994C6.57957 6.25994 6.65587 6.22833 6.71213 6.17207C6.76839 6.11581 6.8 6.0395 6.8 5.95994C6.8 5.88037 6.76839 5.80407 6.71213 5.7478C6.65587 5.69154 6.57957 5.65994 6.5 5.65994ZM6.5 6.85994C6.42044 6.85994 6.34413 6.89154 6.28787 6.9478C6.23161 7.00407 6.2 7.08037 6.2 7.15994C6.2 7.2395 6.23161 7.31581 6.28787 7.37207C6.34413 7.42833 6.42044 7.45994 6.5 7.45994C6.57957 7.45994 6.65587 7.42833 6.71213 7.37207C6.76839 7.31581 6.8 7.2395 6.8 7.15994C6.8 7.08037 6.76839 7.00407 6.71213 6.9478C6.65587 6.89154 6.57957 6.85994 6.5 6.85994ZM14.876 8.01541C13.9823 8.01541 13.3461 8.73065 13.3461 9.73865C13.3461 10.7517 13.9823 11.4666 14.876 11.4666C15.7697 11.4666 16.4 10.7514 16.4 9.73865C16.4 8.72555 15.7697 8.01541 14.876 8.01541ZM6.5 8.05994C6.42044 8.05994 6.34413 8.09154 6.28787 8.1478C6.23161 8.20407 6.2 8.28037 6.2 8.35994C6.2 8.4395 6.23161 8.51581 6.28787 8.57207C6.34413 8.62833 6.42044 8.65994 6.5 8.65994C6.57957 8.65994 6.65587 8.62833 6.71213 8.57207C6.76839 8.51581 6.8 8.4395 6.8 8.35994C6.8 8.28037 6.76839 8.20407 6.71213 8.1478C6.65587 8.09154 6.57957 8.05994 6.5 8.05994ZM14.876 8.65115C15.323 8.65115 15.6055 9.06815 15.6055 9.73865C15.6055 10.3941 15.3128 10.8308 14.876 10.8308C14.4341 10.8308 14.1406 10.3989 14.1406 9.73865C14.1406 9.07835 14.429 8.65115 14.876 8.65115ZM6.5 9.25994C6.42044 9.25994 6.34413 9.29154 6.28787 9.34781C6.23161 9.40407 6.2 9.48037 6.2 9.55994C6.2 9.6395 6.23161 9.71581 6.28787 9.77207C6.34413 9.82833 6.42044 9.85994 6.5 9.85994C6.57957 9.85994 6.65587 9.82833 6.71213 9.77207C6.76839 9.71581 6.8 9.6395 6.8 9.55994C6.8 9.48037 6.76839 9.40407 6.71213 9.34781C6.65587 9.29154 6.57957 9.25994 6.5 9.25994ZM6.5 10.4599C6.42044 10.4599 6.34413 10.4915 6.28787 10.5478C6.23161 10.6041 6.2 10.6804 6.2 10.7599C6.2 10.8395 6.23161 10.9158 6.28787 10.9721C6.34413 11.0283 6.42044 11.0599 6.5 11.0599C6.57957 11.0599 6.65587 11.0283 6.71213 10.9721C6.76839 10.9158 6.8 10.8395 6.8 10.7599C6.8 10.6804 6.76839 10.6041 6.71213 10.5478C6.65587 10.4915 6.57957 10.4599 6.5 10.4599ZM6.5 11.6599C6.42044 11.6599 6.34413 11.6915 6.28787 11.7478C6.23161 11.8041 6.2 11.8804 6.2 11.9599C6.2 12.0395 6.23161 12.1158 6.28787 12.1721C6.34413 12.2283 6.42044 12.2599 6.5 12.2599C6.57957 12.2599 6.65587 12.2283 6.71213 12.1721C6.76839 12.1158 6.8 12.0395 6.8 11.9599C6.8 11.8804 6.76839 11.8041 6.71213 11.7478C6.65587 11.6915 6.57957 11.6599 6.5 11.6599ZM6.5 12.8599C6.42044 12.8599 6.34413 12.8915 6.28787 12.9478C6.23161 13.0041 6.2 13.0804 6.2 13.1599C6.2 13.2395 6.23161 13.3158 6.28787 13.3721C6.34413 13.4283 6.42044 13.4599 6.5 13.4599C6.57957 13.4599 6.65587 13.4283 6.71213 13.3721C6.76839 13.3158 6.8 13.2395 6.8 13.1599C6.8 13.0804 6.76839 13.0041 6.71213 12.9478C6.65587 12.8915 6.57957 12.8599 6.5 12.8599Z" fill="black"/>
</svg>
