<svg width="41" height="41" viewBox="0 0 41 41" fill="none" xmlns="http://www.w3.org/2000/svg">
<path d="M20.396 5.9165C12.1245 5.9165 5.396 12.645 5.396 20.9165C5.396 29.188 12.1245 35.9165 20.396 35.9165C28.6675 35.9165 35.396 29.188 35.396 20.9165C35.396 12.645 28.6675 5.9165 20.396 5.9165ZM20.396 8.4165C27.3149 8.4165 32.896 13.9976 32.896 20.9165C32.896 27.8354 27.3149 33.4165 20.396 33.4165C13.4771 33.4165 7.896 27.8354 7.896 20.9165C7.896 13.9976 13.4771 8.4165 20.396 8.4165ZM13.521 14.6665C12.4858 14.6665 11.646 15.5063 11.646 16.5415C11.646 16.6587 11.6558 16.771 11.6851 16.8931C11.7388 17.1909 11.8608 17.4448 12.0366 17.6743C12.9741 19.2905 15.396 20.9165 15.396 20.9165C15.396 20.9165 19.146 18.5337 19.146 16.5415C19.146 15.5063 18.3062 14.6665 17.271 14.6665C16.2358 14.6665 15.396 15.5063 15.396 16.5415C15.396 15.5063 14.5562 14.6665 13.521 14.6665ZM23.521 14.6665C22.4858 14.6665 21.646 15.5063 21.646 16.5415C21.646 16.6587 21.6558 16.771 21.6851 16.8931C21.7388 17.1909 21.8608 17.4448 22.0366 17.6743C22.9741 19.2905 25.396 20.9165 25.396 20.9165C25.396 20.9165 27.8813 19.3052 28.7944 17.6353C28.9946 17.2642 29.146 16.9028 29.146 16.5415C29.146 15.5063 28.3062 14.6665 27.271 14.6665C26.2358 14.6665 25.396 15.5063 25.396 16.5415C25.396 15.5063 24.5562 14.6665 23.521 14.6665ZM13.9116 24.6665L11.7632 25.9165C13.4917 28.8999 16.7046 30.9165 20.396 30.9165C24.0874 30.9165 27.3003 28.8999 29.0288 25.9165L26.8804 24.6665C25.5815 26.9077 23.1792 28.4165 20.396 28.4165C17.6128 28.4165 15.2105 26.9077 13.9116 24.6665Z" fill="#E0CFBA"/>
</svg>
