<svg width="41" height="41" viewBox="0 0 41 41" fill="none" xmlns="http://www.w3.org/2000/svg">
<path d="M20.396 5.9165C12.1245 5.9165 5.396 12.645 5.396 20.9165C5.396 29.188 12.1245 35.9165 20.396 35.9165C28.6675 35.9165 35.396 29.188 35.396 20.9165C35.396 12.645 28.6675 5.9165 20.396 5.9165ZM20.396 8.4165C27.3149 8.4165 32.896 13.9976 32.896 20.9165C32.896 27.8354 27.3149 33.4165 20.396 33.4165C13.4771 33.4165 7.896 27.8354 7.896 20.9165C7.896 13.9976 13.4771 8.4165 20.396 8.4165ZM14.771 15.9165C13.7358 15.9165 12.896 16.7563 12.896 17.7915C12.896 18.8267 13.7358 19.6665 14.771 19.6665C15.8062 19.6665 16.646 18.8267 16.646 17.7915C16.646 16.7563 15.8062 15.9165 14.771 15.9165ZM26.021 15.9165C24.9858 15.9165 24.146 16.7563 24.146 17.7915C24.146 18.8267 24.9858 19.6665 26.021 19.6665C27.0562 19.6665 27.896 18.8267 27.896 17.7915C27.896 16.7563 27.0562 15.9165 26.021 15.9165ZM13.9116 24.6665L11.7632 25.9165C13.4917 28.8999 16.7046 30.9165 20.396 30.9165C24.0874 30.9165 27.3003 28.8999 29.0288 25.9165L26.8804 24.6665C25.5815 26.9077 23.1792 28.4165 20.396 28.4165C17.6128 28.4165 15.2105 26.9077 13.9116 24.6665Z" fill="#E0CFBA"/>
</svg>
