<svg width="41" height="41" viewBox="0 0 41 41" fill="none" xmlns="http://www.w3.org/2000/svg">
<path d="M20.396 5.9165C12.1267 5.9165 5.396 12.6472 5.396 20.9165C5.396 29.1858 12.1267 35.9165 20.396 35.9165C28.6653 35.9165 35.396 29.1858 35.396 20.9165C35.396 12.6472 28.6653 5.9165 20.396 5.9165ZM20.396 8.4165C27.3142 8.4165 32.896 13.9983 32.896 20.9165C32.896 27.8347 27.3142 33.4165 20.396 33.4165C13.4778 33.4165 7.896 27.8347 7.896 20.9165C7.896 13.9983 13.4778 8.4165 20.396 8.4165ZM12.4053 17.4229L10.8867 19.4102C10.8867 19.4102 12.7894 20.9165 15.396 20.9165C18.0026 20.9165 19.9053 19.4102 19.9053 19.4102L18.3867 17.4229C18.3867 17.4229 17.0169 18.4165 15.396 18.4165C13.7751 18.4165 12.4053 17.4229 12.4053 17.4229ZM22.4053 17.4229L20.8867 19.4102C20.8867 19.4102 22.7894 20.9165 25.396 20.9165C28.0026 20.9165 29.9053 19.4102 29.9053 19.4102L28.3867 17.4229C28.3867 17.4229 27.0169 18.4165 25.396 18.4165C23.7751 18.4165 22.4053 17.4229 22.4053 17.4229ZM20.396 24.6665C17.7894 24.6665 15.8867 26.1729 15.8867 26.1729L17.4053 28.1602C17.4053 28.1602 18.7751 27.1665 20.396 27.1665C22.0169 27.1665 23.3867 28.1602 23.3867 28.1602L24.9053 26.1729C24.9053 26.1729 23.0026 24.6665 20.396 24.6665Z" fill="#E0CFBA"/>
</svg>
