<svg width="25" height="24" viewBox="0 0 25 24" fill="none" xmlns="http://www.w3.org/2000/svg">
<path d="M8.18 1.43994C4.73959 1.43994 1.94 4.23953 1.94 7.67994V16.3199C1.94 19.7603 4.73959 22.5599 8.18 22.5599H16.82C20.2604 22.5599 23.06 19.7603 23.06 16.3199V7.67994C23.06 4.23953 20.2604 1.43994 16.82 1.43994H8.18ZM8.18 2.39994H16.82C19.7415 2.39994 22.1 4.75843 22.1 7.67994V16.3199C22.1 19.2415 19.7415 21.5999 16.82 21.5999H8.18C5.25849 21.5999 2.9 19.2415 2.9 16.3199V7.67994C2.9 4.75843 5.25849 2.39994 8.18 2.39994ZM18.26 5.27994C18.0054 5.27994 17.7612 5.38108 17.5812 5.56112C17.4011 5.74115 17.3 5.98533 17.3 6.23994C17.3 6.49455 17.4011 6.73873 17.5812 6.91876C17.7612 7.0988 18.0054 7.19994 18.26 7.19994C18.5146 7.19994 18.7588 7.0988 18.9388 6.91876C19.1189 6.73873 19.22 6.49455 19.22 6.23994C19.22 5.98533 19.1189 5.74115 18.9388 5.56112C18.7588 5.38108 18.5146 5.27994 18.26 5.27994ZM12.5 6.71994C9.58962 6.71994 7.22 9.08956 7.22 11.9999C7.22 14.9103 9.58962 17.2799 12.5 17.2799C15.4104 17.2799 17.78 14.9103 17.78 11.9999C17.78 9.08956 15.4104 6.71994 12.5 6.71994ZM12.5 7.67994C14.8916 7.67994 16.82 9.60839 16.82 11.9999C16.82 14.3915 14.8916 16.3199 12.5 16.3199C10.1084 16.3199 8.18 14.3915 8.18 11.9999C8.18 9.60839 10.1084 7.67994 12.5 7.67994Z" fill="#333333"/>
</svg>
